<svg id="display" width="500" height="500" viewBox="0 0 500 500" xmlns="http://www.w3.org/2000/svg"><defs/><rect width="500" height="500" fill="#ffffff"/><path d="M244.14842,167.56232c-8.9612,9.51946 -14.91818,22.2582 -14.91818,33.29494c0,-13.74605 -9.24061,-30.13228 -22.01704,-39.65069c-1.74899,1.52099 -3.46894,3.2811 -5.14944,5.29769c-34.8039,47.85536 16.34019,79.18226 47.93624,116.58699c31.59605,-37.40473 82.74013,-68.73163 47.93624,-116.58699c-1.68049,-2.01659 -3.40045,-3.7767 -5.14944,-5.29769c-12.77643,9.51842 -22.01704,25.90464 -22.01704,39.65069c0,-11.03674 -5.95698,-23.77547 -14.91818,-33.29494c1.95005,-4.31947 4.33857,-8.56598 7.09044,-12.61431c19.40113,-28.54143 56.86233,-47.23278 86.05798,-12.19801c66,90.75 -82.5,140.25 -99,222.75c-16.5,-82.5 -165,-132 -99,-222.75c29.19565,-35.03477 66.65685,-16.34342 86.05798,12.19801c2.75187,4.04834 5.14039,8.29484 7.09044,12.61431z" fill="#1a1a1a" fill-rule="evenodd"/></svg>